# xmcd
#
# Track frame offsets:
#	150
#	16359
#	30964
#	48453
#	66547
#	84636
#	99491
#	115054
#	132127
#	148751
#	165345
#	182396
#	198032
#	215854
#	232834
#
# Disc length: 3315 seconds
#
# Revision: 0
# Processed by: cddbd v1.5.2PL0 Copyright (c) Steve Scherf et al.
# Submitted via: audiograbber 1.83.01
#
DISCID=c30cf10f
DTITLE=JonesTM - HC200808
DYEAR=2008
DGENRE=Country
TTITLE0=Shery Lynn - Wrong Train [Radio]
TTITLE1=Julianne Hough - That Song In My Head
TTITLE2=Rascal Flatts - Every Day [Single Version]
TTITLE3=Jason Matthews - That's What Mamas Do
TTITLE4=Brad Paisley - I'm Still A Guy [Radio Edit]
TTITLE5=Kyle Jennings - Long Black Cadillac [Single]
TTITLE6=Mariah Carey - Touch My Body
TTITLE7=O'Neal McKnight - Check Your Coat [Main (Without Rap)]
TTITLE8=Mr. Groove - Papa Was A Rolling Stone [Instrumental With Backing Vocals
TTITLE8=]
TTITLE9=Mr. Groove - Papa Was A Rolling Stone [Instrumental]
TTITLE10=Norman Brown - Pop's Cool Groove [Radio Edit]
TTITLE11=j.dee - Kicking High
TTITLE12=Ann Nesby - I Can't Explain It
TTITLE13=Soul Ballet - Da Da Diamonds
TTITLE14=Sax Pack - Fallin' For You
EXTD=
EXTT0=
EXTT1=
EXTT2=
EXTT3=
EXTT4=
EXTT5=
EXTT6=
EXTT7=
EXTT8=
EXTT9=
EXTT10=
EXTT11=
EXTT12=
EXTT13=
EXTT14=
PLAYORDER=
